<?xml version="1.0" encoding="UTF-8" standalone="no"?>
<!DOCTYPE svg PUBLIC "-//W3C//DTD SVG 1.1//EN"
 "http://www.w3.org/Graphics/SVG/1.1/DTD/svg11.dtd">
<!-- Generated by graphviz version 2.38.0 (20140413.2041)
 -->
<!-- Title: Tree Pages: 1 -->
<svg width="339pt" height="314pt"
 viewBox="0.00 0.00 339.00 314.00" xmlns="http://www.w3.org/2000/svg" xmlns:xlink="http://www.w3.org/1999/xlink">
<g id="graph0" class="graph" transform="scale(1 1) rotate(0) translate(4 310)">
<title>Tree</title>
<polygon fill="white" stroke="none" points="-4,4 -4,-310 335,-310 335,4 -4,4"/>
<!-- 0 -->
<g id="node1" class="node"><title>0</title>
<polygon fill="none" stroke="black" points="206.5,-306 57.5,-306 57.5,-223 206.5,-223 206.5,-306"/>
<text text-anchor="middle" x="132" y="-290.8" font-family="Times New Roman,serif" font-size="14.00">petal width (cm) &lt;= 0.8</text>
<text text-anchor="middle" x="132" y="-275.8" font-family="Times New Roman,serif" font-size="14.00">gini = 0.667</text>
<text text-anchor="middle" x="132" y="-260.8" font-family="Times New Roman,serif" font-size="14.00">samples = 112</text>
<text text-anchor="middle" x="132" y="-245.8" font-family="Times New Roman,serif" font-size="14.00">value = [37, 38, 37]</text>
<text text-anchor="middle" x="132" y="-230.8" font-family="Times New Roman,serif" font-size="14.00">class = versicolor</text>
</g>
<!-- 1 -->
<g id="node2" class="node"><title>1</title>
<polygon fill="none" stroke="black" points="112,-179.5 7.10543e-015,-179.5 7.10543e-015,-111.5 112,-111.5 112,-179.5"/>
<text text-anchor="middle" x="56" y="-164.3" font-family="Times New Roman,serif" font-size="14.00">gini = 0.0</text>
<text text-anchor="middle" x="56" y="-149.3" font-family="Times New Roman,serif" font-size="14.00">samples = 37</text>
<text text-anchor="middle" x="56" y="-134.3" font-family="Times New Roman,serif" font-size="14.00">value = [37, 0, 0]</text>
<text text-anchor="middle" x="56" y="-119.3" font-family="Times New Roman,serif" font-size="14.00">class = setosa</text>
</g>
<!-- 0&#45;&gt;1 -->
<g id="edge1" class="edge"><title>0&#45;&gt;1</title>
<path fill="none" stroke="black" d="M105.632,-222.907C98.3211,-211.652 90.3743,-199.418 83.0263,-188.106"/>
<polygon fill="black" stroke="black" points="85.9269,-186.146 77.5443,-179.667 80.0566,-189.96 85.9269,-186.146"/>
<text text-anchor="middle" x="72.3494" y="-200.421" font-family="Times New Roman,serif" font-size="14.00">True</text>
</g>
<!-- 2 -->
<g id="node3" class="node"><title>2</title>
<polygon fill="none" stroke="black" points="288,-187 130,-187 130,-104 288,-104 288,-187"/>
<text text-anchor="middle" x="209" y="-171.8" font-family="Times New Roman,serif" font-size="14.00">petal length (cm) &lt;= 4.75</text>
<text text-anchor="middle" x="209" y="-156.8" font-family="Times New Roman,serif" font-size="14.00">gini = 0.5</text>
<text text-anchor="middle" x="209" y="-141.8" font-family="Times New Roman,serif" font-size="14.00">samples = 75</text>
<text text-anchor="middle" x="209" y="-126.8" font-family="Times New Roman,serif" font-size="14.00">value = [0, 38, 37]</text>
<text text-anchor="middle" x="209" y="-111.8" font-family="Times New Roman,serif" font-size="14.00">class = versicolor</text>
</g>
<!-- 0&#45;&gt;2 -->
<g id="edge2" class="edge"><title>0&#45;&gt;2</title>
<path fill="none" stroke="black" d="M158.715,-222.907C164.508,-214.105 170.695,-204.703 176.678,-195.612"/>
<polygon fill="black" stroke="black" points="179.759,-197.298 182.332,-187.021 173.911,-193.45 179.759,-197.298"/>
<text text-anchor="middle" x="187.381" y="-207.806" font-family="Times New Roman,serif" font-size="14.00">False</text>
</g>
<!-- 3 -->
<g id="node4" class="node"><title>3</title>
<polygon fill="none" stroke="black" points="201,-68 85,-68 85,-0 201,-0 201,-68"/>
<text text-anchor="middle" x="143" y="-52.8" font-family="Times New Roman,serif" font-size="14.00">gini = 0.054</text>
<text text-anchor="middle" x="143" y="-37.8" font-family="Times New Roman,serif" font-size="14.00">samples = 36</text>
<text text-anchor="middle" x="143" y="-22.8" font-family="Times New Roman,serif" font-size="14.00">value = [0, 35, 1]</text>
<text text-anchor="middle" x="143" y="-7.8" font-family="Times New Roman,serif" font-size="14.00">class = versicolor</text>
</g>
<!-- 2&#45;&gt;3 -->
<g id="edge3" class="edge"><title>2&#45;&gt;3</title>
<path fill="none" stroke="black" d="M184.424,-103.726C179.146,-94.9703 173.561,-85.7032 168.258,-76.9051"/>
<polygon fill="black" stroke="black" points="171.231,-75.0574 163.071,-68.2996 165.236,-78.671 171.231,-75.0574"/>
</g>
<!-- 4 -->
<g id="node5" class="node"><title>4</title>
<polygon fill="none" stroke="black" points="331,-68 219,-68 219,-0 331,-0 331,-68"/>
<text text-anchor="middle" x="275" y="-52.8" font-family="Times New Roman,serif" font-size="14.00">gini = 0.142</text>
<text text-anchor="middle" x="275" y="-37.8" font-family="Times New Roman,serif" font-size="14.00">samples = 39</text>
<text text-anchor="middle" x="275" y="-22.8" font-family="Times New Roman,serif" font-size="14.00">value = [0, 3, 36]</text>
<text text-anchor="middle" x="275" y="-7.8" font-family="Times New Roman,serif" font-size="14.00">class = virginica</text>
</g>
<!-- 2&#45;&gt;4 -->
<g id="edge4" class="edge"><title>2&#45;&gt;4</title>
<path fill="none" stroke="black" d="M233.576,-103.726C238.854,-94.9703 244.439,-85.7032 249.742,-76.9051"/>
<polygon fill="black" stroke="black" points="252.764,-78.671 254.929,-68.2996 246.769,-75.0574 252.764,-78.671"/>
</g>
</g>
</svg>
