<?xml version="1.0" encoding="UTF-8" standalone="no"?>
<!DOCTYPE svg PUBLIC "-//W3C//DTD SVG 1.1//EN"
 "http://www.w3.org/Graphics/SVG/1.1/DTD/svg11.dtd">
<!-- Generated by graphviz version 2.38.0 (20140413.2041)
 -->
<!-- Title: Tree Pages: 1 -->
<svg width="740pt" height="790pt"
 viewBox="0.00 0.00 740.00 790.00" xmlns="http://www.w3.org/2000/svg" xmlns:xlink="http://www.w3.org/1999/xlink">
<g id="graph0" class="graph" transform="scale(1 1) rotate(0) translate(4 786)">
<title>Tree</title>
<polygon fill="white" stroke="none" points="-4,4 -4,-786 736,-786 736,4 -4,4"/>
<!-- 0 -->
<g id="node1" class="node"><title>0</title>
<polygon fill="none" stroke="black" points="264.5,-782 115.5,-782 115.5,-699 264.5,-699 264.5,-782"/>
<text text-anchor="middle" x="190" y="-766.8" font-family="Times New Roman,serif" font-size="14.00">petal width (cm) &lt;= 0.8</text>
<text text-anchor="middle" x="190" y="-751.8" font-family="Times New Roman,serif" font-size="14.00">gini = 0.667</text>
<text text-anchor="middle" x="190" y="-736.8" font-family="Times New Roman,serif" font-size="14.00">samples = 112</text>
<text text-anchor="middle" x="190" y="-721.8" font-family="Times New Roman,serif" font-size="14.00">value = [37, 38, 37]</text>
<text text-anchor="middle" x="190" y="-706.8" font-family="Times New Roman,serif" font-size="14.00">class = versicolor</text>
</g>
<!-- 1 -->
<g id="node2" class="node"><title>1</title>
<polygon fill="none" stroke="black" points="170,-655.5 58,-655.5 58,-587.5 170,-587.5 170,-655.5"/>
<text text-anchor="middle" x="114" y="-640.3" font-family="Times New Roman,serif" font-size="14.00">gini = 0.0</text>
<text text-anchor="middle" x="114" y="-625.3" font-family="Times New Roman,serif" font-size="14.00">samples = 37</text>
<text text-anchor="middle" x="114" y="-610.3" font-family="Times New Roman,serif" font-size="14.00">value = [37, 0, 0]</text>
<text text-anchor="middle" x="114" y="-595.3" font-family="Times New Roman,serif" font-size="14.00">class = setosa</text>
</g>
<!-- 0&#45;&gt;1 -->
<g id="edge1" class="edge"><title>0&#45;&gt;1</title>
<path fill="none" stroke="black" d="M163.632,-698.907C156.321,-687.652 148.374,-675.418 141.026,-664.106"/>
<polygon fill="black" stroke="black" points="143.927,-662.146 135.544,-655.667 138.057,-665.96 143.927,-662.146"/>
<text text-anchor="middle" x="130.349" y="-676.421" font-family="Times New Roman,serif" font-size="14.00">True</text>
</g>
<!-- 2 -->
<g id="node3" class="node"><title>2</title>
<polygon fill="none" stroke="black" points="346,-663 188,-663 188,-580 346,-580 346,-663"/>
<text text-anchor="middle" x="267" y="-647.8" font-family="Times New Roman,serif" font-size="14.00">petal length (cm) &lt;= 4.75</text>
<text text-anchor="middle" x="267" y="-632.8" font-family="Times New Roman,serif" font-size="14.00">gini = 0.5</text>
<text text-anchor="middle" x="267" y="-617.8" font-family="Times New Roman,serif" font-size="14.00">samples = 75</text>
<text text-anchor="middle" x="267" y="-602.8" font-family="Times New Roman,serif" font-size="14.00">value = [0, 38, 37]</text>
<text text-anchor="middle" x="267" y="-587.8" font-family="Times New Roman,serif" font-size="14.00">class = versicolor</text>
</g>
<!-- 0&#45;&gt;2 -->
<g id="edge2" class="edge"><title>0&#45;&gt;2</title>
<path fill="none" stroke="black" d="M216.715,-698.907C222.508,-690.105 228.695,-680.703 234.678,-671.612"/>
<polygon fill="black" stroke="black" points="237.759,-673.298 240.332,-663.021 231.911,-669.45 237.759,-673.298"/>
<text text-anchor="middle" x="245.381" y="-683.806" font-family="Times New Roman,serif" font-size="14.00">False</text>
</g>
<!-- 3 -->
<g id="node4" class="node"><title>3</title>
<polygon fill="none" stroke="black" points="257.5,-544 102.5,-544 102.5,-461 257.5,-461 257.5,-544"/>
<text text-anchor="middle" x="180" y="-528.8" font-family="Times New Roman,serif" font-size="14.00">petal width (cm) &lt;= 1.65</text>
<text text-anchor="middle" x="180" y="-513.8" font-family="Times New Roman,serif" font-size="14.00">gini = 0.054</text>
<text text-anchor="middle" x="180" y="-498.8" font-family="Times New Roman,serif" font-size="14.00">samples = 36</text>
<text text-anchor="middle" x="180" y="-483.8" font-family="Times New Roman,serif" font-size="14.00">value = [0, 35, 1]</text>
<text text-anchor="middle" x="180" y="-468.8" font-family="Times New Roman,serif" font-size="14.00">class = versicolor</text>
</g>
<!-- 2&#45;&gt;3 -->
<g id="edge3" class="edge"><title>2&#45;&gt;3</title>
<path fill="none" stroke="black" d="M236.816,-579.907C230.135,-570.923 222.991,-561.315 216.101,-552.05"/>
<polygon fill="black" stroke="black" points="218.907,-549.957 210.131,-544.021 213.289,-554.134 218.907,-549.957"/>
</g>
<!-- 6 -->
<g id="node7" class="node"><title>6</title>
<polygon fill="none" stroke="black" points="434,-544 276,-544 276,-461 434,-461 434,-544"/>
<text text-anchor="middle" x="355" y="-528.8" font-family="Times New Roman,serif" font-size="14.00">petal length (cm) &lt;= 4.85</text>
<text text-anchor="middle" x="355" y="-513.8" font-family="Times New Roman,serif" font-size="14.00">gini = 0.142</text>
<text text-anchor="middle" x="355" y="-498.8" font-family="Times New Roman,serif" font-size="14.00">samples = 39</text>
<text text-anchor="middle" x="355" y="-483.8" font-family="Times New Roman,serif" font-size="14.00">value = [0, 3, 36]</text>
<text text-anchor="middle" x="355" y="-468.8" font-family="Times New Roman,serif" font-size="14.00">class = virginica</text>
</g>
<!-- 2&#45;&gt;6 -->
<g id="edge6" class="edge"><title>2&#45;&gt;6</title>
<path fill="none" stroke="black" d="M297.531,-579.907C304.289,-570.923 311.515,-561.315 318.484,-552.05"/>
<polygon fill="black" stroke="black" points="321.309,-554.116 324.523,-544.021 315.715,-549.909 321.309,-554.116"/>
</g>
<!-- 4 -->
<g id="node5" class="node"><title>4</title>
<polygon fill="none" stroke="black" points="116,-417.5 0,-417.5 0,-349.5 116,-349.5 116,-417.5"/>
<text text-anchor="middle" x="58" y="-402.3" font-family="Times New Roman,serif" font-size="14.00">gini = 0.0</text>
<text text-anchor="middle" x="58" y="-387.3" font-family="Times New Roman,serif" font-size="14.00">samples = 35</text>
<text text-anchor="middle" x="58" y="-372.3" font-family="Times New Roman,serif" font-size="14.00">value = [0, 35, 0]</text>
<text text-anchor="middle" x="58" y="-357.3" font-family="Times New Roman,serif" font-size="14.00">class = versicolor</text>
</g>
<!-- 3&#45;&gt;4 -->
<g id="edge4" class="edge"><title>3&#45;&gt;4</title>
<path fill="none" stroke="black" d="M137.673,-460.907C125.476,-449.211 112.178,-436.457 100.001,-424.78"/>
<polygon fill="black" stroke="black" points="102.224,-422.062 92.5843,-417.667 97.3792,-427.115 102.224,-422.062"/>
</g>
<!-- 5 -->
<g id="node6" class="node"><title>5</title>
<polygon fill="none" stroke="black" points="241.5,-417.5 134.5,-417.5 134.5,-349.5 241.5,-349.5 241.5,-417.5"/>
<text text-anchor="middle" x="188" y="-402.3" font-family="Times New Roman,serif" font-size="14.00">gini = 0.0</text>
<text text-anchor="middle" x="188" y="-387.3" font-family="Times New Roman,serif" font-size="14.00">samples = 1</text>
<text text-anchor="middle" x="188" y="-372.3" font-family="Times New Roman,serif" font-size="14.00">value = [0, 0, 1]</text>
<text text-anchor="middle" x="188" y="-357.3" font-family="Times New Roman,serif" font-size="14.00">class = virginica</text>
</g>
<!-- 3&#45;&gt;5 -->
<g id="edge5" class="edge"><title>3&#45;&gt;5</title>
<path fill="none" stroke="black" d="M182.776,-460.907C183.507,-450.204 184.3,-438.615 185.041,-427.776"/>
<polygon fill="black" stroke="black" points="188.542,-427.882 185.732,-417.667 181.558,-427.405 188.542,-427.882"/>
</g>
<!-- 7 -->
<g id="node8" class="node"><title>7</title>
<polygon fill="none" stroke="black" points="422.5,-425 273.5,-425 273.5,-342 422.5,-342 422.5,-425"/>
<text text-anchor="middle" x="348" y="-409.8" font-family="Times New Roman,serif" font-size="14.00">petal width (cm) &lt;= 1.6</text>
<text text-anchor="middle" x="348" y="-394.8" font-family="Times New Roman,serif" font-size="14.00">gini = 0.5</text>
<text text-anchor="middle" x="348" y="-379.8" font-family="Times New Roman,serif" font-size="14.00">samples = 4</text>
<text text-anchor="middle" x="348" y="-364.8" font-family="Times New Roman,serif" font-size="14.00">value = [0, 2, 2]</text>
<text text-anchor="middle" x="348" y="-349.8" font-family="Times New Roman,serif" font-size="14.00">class = versicolor</text>
</g>
<!-- 6&#45;&gt;7 -->
<g id="edge7" class="edge"><title>6&#45;&gt;7</title>
<path fill="none" stroke="black" d="M352.571,-460.907C352.072,-452.558 351.54,-443.671 351.023,-435.02"/>
<polygon fill="black" stroke="black" points="354.515,-434.794 350.424,-425.021 347.528,-435.212 354.515,-434.794"/>
</g>
<!-- 12 -->
<g id="node13" class="node"><title>12</title>
<polygon fill="none" stroke="black" points="596.5,-425 447.5,-425 447.5,-342 596.5,-342 596.5,-425"/>
<text text-anchor="middle" x="522" y="-409.8" font-family="Times New Roman,serif" font-size="14.00">petal width (cm) &lt;= 1.7</text>
<text text-anchor="middle" x="522" y="-394.8" font-family="Times New Roman,serif" font-size="14.00">gini = 0.056</text>
<text text-anchor="middle" x="522" y="-379.8" font-family="Times New Roman,serif" font-size="14.00">samples = 35</text>
<text text-anchor="middle" x="522" y="-364.8" font-family="Times New Roman,serif" font-size="14.00">value = [0, 1, 34]</text>
<text text-anchor="middle" x="522" y="-349.8" font-family="Times New Roman,serif" font-size="14.00">class = virginica</text>
</g>
<!-- 6&#45;&gt;12 -->
<g id="edge12" class="edge"><title>6&#45;&gt;12</title>
<path fill="none" stroke="black" d="M412.94,-460.907C426.8,-451.197 441.7,-440.758 455.898,-430.811"/>
<polygon fill="black" stroke="black" points="457.981,-433.625 464.163,-425.021 453.964,-427.892 457.981,-433.625"/>
</g>
<!-- 8 -->
<g id="node9" class="node"><title>8</title>
<polygon fill="none" stroke="black" points="254,-298.5 138,-298.5 138,-230.5 254,-230.5 254,-298.5"/>
<text text-anchor="middle" x="196" y="-283.3" font-family="Times New Roman,serif" font-size="14.00">gini = 0.0</text>
<text text-anchor="middle" x="196" y="-268.3" font-family="Times New Roman,serif" font-size="14.00">samples = 1</text>
<text text-anchor="middle" x="196" y="-253.3" font-family="Times New Roman,serif" font-size="14.00">value = [0, 1, 0]</text>
<text text-anchor="middle" x="196" y="-238.3" font-family="Times New Roman,serif" font-size="14.00">class = versicolor</text>
</g>
<!-- 7&#45;&gt;8 -->
<g id="edge8" class="edge"><title>7&#45;&gt;8</title>
<path fill="none" stroke="black" d="M295.264,-341.907C279.639,-329.88 262.561,-316.735 247.045,-304.791"/>
<polygon fill="black" stroke="black" points="249.148,-301.993 239.089,-298.667 244.878,-307.54 249.148,-301.993"/>
</g>
<!-- 9 -->
<g id="node10" class="node"><title>9</title>
<polygon fill="none" stroke="black" points="423.5,-306 272.5,-306 272.5,-223 423.5,-223 423.5,-306"/>
<text text-anchor="middle" x="348" y="-290.8" font-family="Times New Roman,serif" font-size="14.00">sepal width (cm) &lt;= 3.1</text>
<text text-anchor="middle" x="348" y="-275.8" font-family="Times New Roman,serif" font-size="14.00">gini = 0.444</text>
<text text-anchor="middle" x="348" y="-260.8" font-family="Times New Roman,serif" font-size="14.00">samples = 3</text>
<text text-anchor="middle" x="348" y="-245.8" font-family="Times New Roman,serif" font-size="14.00">value = [0, 1, 2]</text>
<text text-anchor="middle" x="348" y="-230.8" font-family="Times New Roman,serif" font-size="14.00">class = virginica</text>
</g>
<!-- 7&#45;&gt;9 -->
<g id="edge9" class="edge"><title>7&#45;&gt;9</title>
<path fill="none" stroke="black" d="M348,-341.907C348,-333.649 348,-324.864 348,-316.302"/>
<polygon fill="black" stroke="black" points="351.5,-316.021 348,-306.021 344.5,-316.021 351.5,-316.021"/>
</g>
<!-- 10 -->
<g id="node11" class="node"><title>10</title>
<polygon fill="none" stroke="black" points="276.5,-179.5 169.5,-179.5 169.5,-111.5 276.5,-111.5 276.5,-179.5"/>
<text text-anchor="middle" x="223" y="-164.3" font-family="Times New Roman,serif" font-size="14.00">gini = 0.0</text>
<text text-anchor="middle" x="223" y="-149.3" font-family="Times New Roman,serif" font-size="14.00">samples = 2</text>
<text text-anchor="middle" x="223" y="-134.3" font-family="Times New Roman,serif" font-size="14.00">value = [0, 0, 2]</text>
<text text-anchor="middle" x="223" y="-119.3" font-family="Times New Roman,serif" font-size="14.00">class = virginica</text>
</g>
<!-- 9&#45;&gt;10 -->
<g id="edge10" class="edge"><title>9&#45;&gt;10</title>
<path fill="none" stroke="black" d="M304.632,-222.907C292.136,-211.211 278.51,-198.457 266.034,-186.78"/>
<polygon fill="black" stroke="black" points="268.127,-183.945 258.435,-179.667 263.344,-189.056 268.127,-183.945"/>
</g>
<!-- 11 -->
<g id="node12" class="node"><title>11</title>
<polygon fill="none" stroke="black" points="411,-179.5 295,-179.5 295,-111.5 411,-111.5 411,-179.5"/>
<text text-anchor="middle" x="353" y="-164.3" font-family="Times New Roman,serif" font-size="14.00">gini = 0.0</text>
<text text-anchor="middle" x="353" y="-149.3" font-family="Times New Roman,serif" font-size="14.00">samples = 1</text>
<text text-anchor="middle" x="353" y="-134.3" font-family="Times New Roman,serif" font-size="14.00">value = [0, 1, 0]</text>
<text text-anchor="middle" x="353" y="-119.3" font-family="Times New Roman,serif" font-size="14.00">class = versicolor</text>
</g>
<!-- 9&#45;&gt;11 -->
<g id="edge11" class="edge"><title>9&#45;&gt;11</title>
<path fill="none" stroke="black" d="M349.735,-222.907C350.192,-212.204 350.687,-200.615 351.151,-189.776"/>
<polygon fill="black" stroke="black" points="354.652,-189.807 351.583,-179.667 347.659,-189.508 354.652,-189.807"/>
</g>
<!-- 13 -->
<g id="node14" class="node"><title>13</title>
<polygon fill="none" stroke="black" points="602,-306 442,-306 442,-223 602,-223 602,-306"/>
<text text-anchor="middle" x="522" y="-290.8" font-family="Times New Roman,serif" font-size="14.00">sepal length (cm) &lt;= 6.05</text>
<text text-anchor="middle" x="522" y="-275.8" font-family="Times New Roman,serif" font-size="14.00">gini = 0.32</text>
<text text-anchor="middle" x="522" y="-260.8" font-family="Times New Roman,serif" font-size="14.00">samples = 5</text>
<text text-anchor="middle" x="522" y="-245.8" font-family="Times New Roman,serif" font-size="14.00">value = [0, 1, 4]</text>
<text text-anchor="middle" x="522" y="-230.8" font-family="Times New Roman,serif" font-size="14.00">class = virginica</text>
</g>
<!-- 12&#45;&gt;13 -->
<g id="edge13" class="edge"><title>12&#45;&gt;13</title>
<path fill="none" stroke="black" d="M522,-341.907C522,-333.649 522,-324.864 522,-316.302"/>
<polygon fill="black" stroke="black" points="525.5,-316.021 522,-306.021 518.5,-316.021 525.5,-316.021"/>
</g>
<!-- 18 -->
<g id="node19" class="node"><title>18</title>
<polygon fill="none" stroke="black" points="732,-298.5 620,-298.5 620,-230.5 732,-230.5 732,-298.5"/>
<text text-anchor="middle" x="676" y="-283.3" font-family="Times New Roman,serif" font-size="14.00">gini = 0.0</text>
<text text-anchor="middle" x="676" y="-268.3" font-family="Times New Roman,serif" font-size="14.00">samples = 30</text>
<text text-anchor="middle" x="676" y="-253.3" font-family="Times New Roman,serif" font-size="14.00">value = [0, 0, 30]</text>
<text text-anchor="middle" x="676" y="-238.3" font-family="Times New Roman,serif" font-size="14.00">class = virginica</text>
</g>
<!-- 12&#45;&gt;18 -->
<g id="edge18" class="edge"><title>12&#45;&gt;18</title>
<path fill="none" stroke="black" d="M575.43,-341.907C591.261,-329.88 608.563,-316.735 624.284,-304.791"/>
<polygon fill="black" stroke="black" points="626.499,-307.503 632.344,-298.667 622.264,-301.93 626.499,-307.503"/>
</g>
<!-- 14 -->
<g id="node15" class="node"><title>14</title>
<polygon fill="none" stroke="black" points="594.5,-187 439.5,-187 439.5,-104 594.5,-104 594.5,-187"/>
<text text-anchor="middle" x="517" y="-171.8" font-family="Times New Roman,serif" font-size="14.00">petal width (cm) &lt;= 1.55</text>
<text text-anchor="middle" x="517" y="-156.8" font-family="Times New Roman,serif" font-size="14.00">gini = 0.5</text>
<text text-anchor="middle" x="517" y="-141.8" font-family="Times New Roman,serif" font-size="14.00">samples = 2</text>
<text text-anchor="middle" x="517" y="-126.8" font-family="Times New Roman,serif" font-size="14.00">value = [0, 1, 1]</text>
<text text-anchor="middle" x="517" y="-111.8" font-family="Times New Roman,serif" font-size="14.00">class = versicolor</text>
</g>
<!-- 13&#45;&gt;14 -->
<g id="edge14" class="edge"><title>13&#45;&gt;14</title>
<path fill="none" stroke="black" d="M520.265,-222.907C519.908,-214.558 519.529,-205.671 519.159,-197.02"/>
<polygon fill="black" stroke="black" points="522.656,-196.862 518.732,-187.021 515.662,-197.161 522.656,-196.862"/>
</g>
<!-- 17 -->
<g id="node18" class="node"><title>17</title>
<polygon fill="none" stroke="black" points="719.5,-179.5 612.5,-179.5 612.5,-111.5 719.5,-111.5 719.5,-179.5"/>
<text text-anchor="middle" x="666" y="-164.3" font-family="Times New Roman,serif" font-size="14.00">gini = 0.0</text>
<text text-anchor="middle" x="666" y="-149.3" font-family="Times New Roman,serif" font-size="14.00">samples = 3</text>
<text text-anchor="middle" x="666" y="-134.3" font-family="Times New Roman,serif" font-size="14.00">value = [0, 0, 3]</text>
<text text-anchor="middle" x="666" y="-119.3" font-family="Times New Roman,serif" font-size="14.00">class = virginica</text>
</g>
<!-- 13&#45;&gt;17 -->
<g id="edge17" class="edge"><title>13&#45;&gt;17</title>
<path fill="none" stroke="black" d="M571.96,-222.907C586.627,-210.99 602.645,-197.976 617.237,-186.12"/>
<polygon fill="black" stroke="black" points="619.625,-188.689 625.179,-179.667 615.211,-183.256 619.625,-188.689"/>
</g>
<!-- 15 -->
<g id="node16" class="node"><title>15</title>
<polygon fill="none" stroke="black" points="505.5,-68 398.5,-68 398.5,-0 505.5,-0 505.5,-68"/>
<text text-anchor="middle" x="452" y="-52.8" font-family="Times New Roman,serif" font-size="14.00">gini = 0.0</text>
<text text-anchor="middle" x="452" y="-37.8" font-family="Times New Roman,serif" font-size="14.00">samples = 1</text>
<text text-anchor="middle" x="452" y="-22.8" font-family="Times New Roman,serif" font-size="14.00">value = [0, 0, 1]</text>
<text text-anchor="middle" x="452" y="-7.8" font-family="Times New Roman,serif" font-size="14.00">class = virginica</text>
</g>
<!-- 14&#45;&gt;15 -->
<g id="edge15" class="edge"><title>14&#45;&gt;15</title>
<path fill="none" stroke="black" d="M492.796,-103.726C487.599,-94.9703 482.098,-85.7032 476.875,-76.9051"/>
<polygon fill="black" stroke="black" points="479.881,-75.1121 471.767,-68.2996 473.862,-78.6853 479.881,-75.1121"/>
</g>
<!-- 16 -->
<g id="node17" class="node"><title>16</title>
<polygon fill="none" stroke="black" points="640,-68 524,-68 524,-0 640,-0 640,-68"/>
<text text-anchor="middle" x="582" y="-52.8" font-family="Times New Roman,serif" font-size="14.00">gini = 0.0</text>
<text text-anchor="middle" x="582" y="-37.8" font-family="Times New Roman,serif" font-size="14.00">samples = 1</text>
<text text-anchor="middle" x="582" y="-22.8" font-family="Times New Roman,serif" font-size="14.00">value = [0, 1, 0]</text>
<text text-anchor="middle" x="582" y="-7.8" font-family="Times New Roman,serif" font-size="14.00">class = versicolor</text>
</g>
<!-- 14&#45;&gt;16 -->
<g id="edge16" class="edge"><title>14&#45;&gt;16</title>
<path fill="none" stroke="black" d="M541.204,-103.726C546.401,-94.9703 551.902,-85.7032 557.125,-76.9051"/>
<polygon fill="black" stroke="black" points="560.138,-78.6853 562.233,-68.2996 554.119,-75.1121 560.138,-78.6853"/>
</g>
</g>
</svg>
